<svg width="188" height="36" viewBox="0 0 188 36" fill="none" xmlns="http://www.w3.org/2000/svg">
<path d="M11.632 0.391968C13.52 0.391968 14.976 0.599968 16 1.01597C17.024 1.39997 17.904 1.81597 18.64 2.26397C19.024 2.48797 19.328 2.66397 19.552 2.79197C19.808 2.88797 20.048 2.93597 20.272 2.93597C20.592 2.93597 20.816 2.75997 20.944 2.40797C21.104 2.05597 21.232 1.52797 21.328 0.823968H22.432C22.4 1.43197 22.352 2.16797 22.288 3.03197C22.256 3.86397 22.224 4.96797 22.192 6.34397C22.192 7.71997 22.192 9.52797 22.192 11.768H21.088C20.96 10.104 20.576 8.48797 19.936 6.91997C19.296 5.35197 18.384 4.07197 17.2 3.07997C16.048 2.05597 14.624 1.54397 12.928 1.54397C11.392 1.54397 10.128 1.97597 9.13601 2.83997C8.14401 3.70397 7.64801 4.90397 7.64801 6.43997C7.64801 7.71997 7.96801 8.82397 8.60802 9.75197C9.24801 10.648 10.176 11.528 11.392 12.392C12.64 13.256 14.144 14.296 15.904 15.512C17.44 16.504 18.816 17.496 20.032 18.488C21.248 19.48 22.224 20.6 22.96 21.848C23.696 23.096 24.064 24.584 24.064 26.312C24.064 28.424 23.504 30.168 22.384 31.544C21.296 32.92 19.856 33.96 18.064 34.664C16.272 35.336 14.304 35.672 12.16 35.672C10.176 35.672 8.59201 35.48 7.40801 35.096C6.22401 34.712 5.23201 34.312 4.43201 33.896C3.72801 33.448 3.18401 33.224 2.80001 33.224C2.48001 33.224 2.24001 33.4 2.08001 33.752C1.95201 34.104 1.84001 34.632 1.74401 35.336H0.640015C0.704015 34.568 0.736015 33.672 0.736015 32.648C0.768015 31.624 0.784015 30.296 0.784015 28.664C0.816015 27 0.832015 24.904 0.832015 22.376H1.93601C2.06401 24.488 2.41601 26.472 2.99201 28.328C3.60001 30.152 4.51201 31.624 5.72801 32.744C6.97601 33.864 8.62401 34.424 10.672 34.424C11.792 34.424 12.784 34.232 13.648 33.848C14.544 33.432 15.264 32.824 15.808 32.024C16.352 31.224 16.624 30.232 16.624 29.048C16.624 27.704 16.304 26.536 15.664 25.544C15.056 24.552 14.208 23.624 13.12 22.76C12.064 21.896 10.832 21.016 9.42402 20.12C7.92002 19.128 6.51201 18.136 5.20001 17.144C3.88801 16.152 2.83201 15.016 2.03201 13.736C1.26401 12.456 0.880015 10.936 0.880015 9.17597C0.880015 7.15997 1.37601 5.51197 2.36801 4.23197C3.39201 2.91997 4.72001 1.95997 6.35202 1.35197C8.01602 0.711967 9.77602 0.391968 11.632 0.391968Z" fill="black"/>
<path d="M42.4953 1.01597C48.7993 1.01597 53.4873 2.45597 56.5593 5.33597C59.6313 8.18397 61.1673 12.28 61.1673 17.624C61.1673 21.112 60.4153 24.168 58.9113 26.792C57.4073 29.384 55.2153 31.4 52.3353 32.84C49.4873 34.28 46.0633 35 42.0633 35C41.5513 35 40.8793 34.984 40.0473 34.952C39.2153 34.92 38.3513 34.904 37.4553 34.904C36.5593 34.872 35.7593 34.856 35.0553 34.856C33.6473 34.856 32.2553 34.872 30.8793 34.904C29.5353 34.904 28.4633 34.936 27.6633 35V34.04C28.6873 33.976 29.4553 33.848 29.9673 33.656C30.4793 33.464 30.8153 33.08 30.9753 32.504C31.1673 31.928 31.2633 31.064 31.2633 29.912V6.10397C31.2633 4.91997 31.1673 4.05597 30.9753 3.51197C30.8153 2.93597 30.4633 2.55197 29.9193 2.35997C29.4073 2.13597 28.6553 2.00797 27.6633 1.97597V1.01597C28.4633 1.04797 29.5353 1.09597 30.8793 1.15997C32.2553 1.19197 33.6153 1.19197 34.9593 1.15997C36.1113 1.12797 37.4073 1.09597 38.8473 1.06397C40.3193 1.03197 41.5353 1.01597 42.4953 1.01597ZM42.4473 1.87997C40.9753 1.87997 40.0153 2.15197 39.5673 2.69597C39.1193 3.23997 38.8953 4.34397 38.8953 6.00797V30.008C38.8953 31.672 39.1193 32.776 39.5673 33.32C40.0473 33.864 41.0233 34.136 42.4953 34.136C45.1833 34.136 47.2953 33.512 48.8313 32.264C50.3993 30.984 51.5193 29.128 52.1913 26.696C52.8633 24.264 53.1993 21.304 53.1993 17.816C53.1993 14.232 52.8313 11.272 52.0953 8.93597C51.3913 6.56797 50.2553 4.80797 48.6873 3.65597C47.1193 2.47197 45.0393 1.87997 42.4473 1.87997Z" fill="black"/>
<path d="M79.627 1.01597V1.97597C78.539 2.00797 77.707 2.13597 77.131 2.35997C76.587 2.55197 76.219 2.93597 76.027 3.51197C75.835 4.05597 75.739 4.91997 75.739 6.10397V30.488C75.739 31.48 75.803 32.216 75.931 32.696C76.091 33.176 76.379 33.496 76.795 33.656C77.243 33.816 77.899 33.896 78.763 33.896H81.115C82.203 33.896 83.227 33.64 84.187 33.128C85.147 32.616 86.011 31.896 86.779 30.968C87.547 30.008 88.187 28.872 88.699 27.56C89.211 26.248 89.595 24.792 89.851 23.192H90.955C90.859 24.28 90.811 25.688 90.811 27.416C90.811 28.152 90.827 29.224 90.859 30.632C90.891 32.04 90.987 33.496 91.147 35C89.515 34.936 87.675 34.904 85.627 34.904C83.579 34.872 81.755 34.856 80.155 34.856C79.355 34.856 78.331 34.856 77.083 34.856C75.835 34.856 74.491 34.872 73.051 34.904C71.611 34.904 70.155 34.92 68.683 34.952C67.211 34.952 65.819 34.968 64.507 35V34.04C65.531 33.976 66.299 33.848 66.811 33.656C67.323 33.464 67.659 33.08 67.819 32.504C68.011 31.928 68.107 31.064 68.107 29.912V6.10397C68.107 4.91997 68.011 4.05597 67.819 3.51197C67.659 2.93597 67.307 2.55197 66.763 2.35997C66.251 2.13597 65.499 2.00797 64.507 1.97597V1.01597C65.307 1.04797 66.379 1.07997 67.723 1.11197C69.099 1.14397 70.555 1.15997 72.091 1.15997C73.499 1.15997 74.875 1.14397 76.219 1.11197C77.595 1.07997 78.731 1.04797 79.627 1.01597Z" fill="black"/>
<path d="M108.683 1.01597V1.97597C107.659 2.00797 106.875 2.13597 106.331 2.35997C105.819 2.55197 105.483 2.93597 105.323 3.51197C105.163 4.05597 105.083 4.91997 105.083 6.10397V29.912C105.083 31.064 105.163 31.928 105.323 32.504C105.515 33.08 105.867 33.464 106.379 33.656C106.891 33.848 107.659 33.976 108.683 34.04V35C107.819 34.936 106.731 34.904 105.419 34.904C104.107 34.872 102.779 34.856 101.435 34.856C99.8668 34.856 98.4108 34.872 97.0668 34.904C95.7548 34.904 94.6828 34.936 93.8508 35V34.04C94.8748 33.976 95.6428 33.848 96.1548 33.656C96.6668 33.464 97.0028 33.08 97.1628 32.504C97.3548 31.928 97.4508 31.064 97.4508 29.912V6.10397C97.4508 4.91997 97.3548 4.05597 97.1628 3.51197C97.0028 2.93597 96.6508 2.55197 96.1068 2.35997C95.5948 2.13597 94.8428 2.00797 93.8508 1.97597V1.01597C94.6828 1.04797 95.7548 1.07997 97.0668 1.11197C98.4108 1.14397 99.8668 1.15997 101.435 1.15997C102.779 1.15997 104.107 1.14397 105.419 1.11197C106.731 1.07997 107.819 1.04797 108.683 1.01597Z" fill="black"/>
<path d="M153.178 1.01597V1.97597C152.154 2.00797 151.386 2.13597 150.874 2.35997C150.362 2.55197 150.01 2.93597 149.818 3.51197C149.658 4.05597 149.578 4.91997 149.578 6.10397V29.912C149.578 31.064 149.658 31.928 149.818 32.504C150.01 33.08 150.362 33.464 150.874 33.656C151.386 33.848 152.154 33.976 153.178 34.04V35C152.282 34.936 151.146 34.904 149.77 34.904C148.426 34.872 147.05 34.856 145.642 34.856C144.106 34.856 142.666 34.872 141.322 34.904C139.978 34.904 138.89 34.936 138.058 35V34.04C139.146 33.976 139.962 33.848 140.506 33.656C141.082 33.464 141.466 33.08 141.658 32.504C141.85 31.928 141.946 31.064 141.946 29.912V3.94397H142.282L130.378 35.048H129.61L116.65 4.13597V27.128C116.65 28.888 116.746 30.248 116.938 31.208C117.13 32.136 117.546 32.808 118.186 33.224C118.858 33.608 119.898 33.88 121.306 34.04V35C120.698 34.936 119.898 34.904 118.906 34.904C117.914 34.872 116.986 34.856 116.122 34.856C115.386 34.856 114.634 34.872 113.866 34.904C113.098 34.904 112.458 34.936 111.946 35V34.04C112.97 33.88 113.738 33.608 114.25 33.224C114.762 32.84 115.098 32.216 115.258 31.352C115.45 30.456 115.546 29.24 115.546 27.704V6.10397C115.546 4.91997 115.45 4.05597 115.258 3.51197C115.098 2.93597 114.746 2.55197 114.202 2.35997C113.69 2.13597 112.938 2.00797 111.946 1.97597V1.01597C112.458 1.04797 113.098 1.07997 113.866 1.11197C114.634 1.14397 115.386 1.15997 116.122 1.15997C117.498 1.15997 118.842 1.14397 120.154 1.11197C121.498 1.07997 122.682 1.04797 123.706 1.01597L133.786 25.352L132.586 26.456L142.234 1.15997C142.778 1.15997 143.338 1.15997 143.914 1.15997C144.49 1.15997 145.066 1.15997 145.642 1.15997C147.05 1.15997 148.426 1.14397 149.77 1.11197C151.146 1.07997 152.282 1.04797 153.178 1.01597Z" fill="black"/>
<path d="M172.414 0.919967L184.078 30.968C184.526 32.12 185.022 32.92 185.566 33.368C186.142 33.784 186.654 34.008 187.102 34.04V35C186.142 34.936 185.006 34.904 183.694 34.904C182.414 34.872 181.118 34.856 179.806 34.856C178.334 34.856 176.942 34.872 175.63 34.904C174.318 34.904 173.278 34.936 172.51 35V34.04C174.142 33.976 175.166 33.704 175.582 33.224C176.03 32.712 175.934 31.64 175.294 30.008L167.134 7.68797L167.998 6.43997L160.702 25.448C159.998 27.208 159.566 28.648 159.406 29.768C159.278 30.888 159.358 31.752 159.646 32.36C159.966 32.968 160.462 33.4 161.134 33.656C161.838 33.88 162.67 34.008 163.63 34.04V35C162.574 34.936 161.566 34.904 160.606 34.904C159.646 34.872 158.67 34.856 157.678 34.856C156.974 34.856 156.302 34.872 155.662 34.904C155.054 34.904 154.51 34.936 154.03 35V34.04C154.702 33.912 155.39 33.48 156.094 32.744C156.798 32.008 157.486 30.76 158.158 29L169.102 0.919967C169.614 0.951966 170.158 0.967966 170.734 0.967966C171.342 0.967966 171.902 0.951966 172.414 0.919967ZM175.774 21.176V22.136H161.47L161.95 21.176H175.774Z" fill="black"/>
</svg>
