<svg width="22" height="16" viewBox="0 0 22 16" fill="none" xmlns="http://www.w3.org/2000/svg">
<path d="M14.075 12.8875L13.225 14.7313C13.1583 14.8707 13.0417 14.9847 12.875 15.0734C12.7083 15.1622 12.525 15.2065 12.325 15.2065C11.9917 15.2065 11.7208 15.102 11.5125 14.8929C11.3042 14.6838 11.2667 14.4525 11.4 14.1991L15.2 6.5578C15.2833 6.41841 15.4083 6.30436 15.575 6.21566C15.7417 6.12695 15.925 6.0826 16.125 6.0826H16.875C17.075 6.0826 17.2583 6.12695 17.425 6.21566C17.5917 6.30436 17.7167 6.41841 17.8 6.5578L21.6 14.2181C21.7333 14.4588 21.7 14.6838 21.5 14.8929C21.3 15.102 21.0333 15.2065 20.7 15.2065C20.4833 15.2065 20.2958 15.1622 20.1375 15.0734C19.9792 14.9847 19.8583 14.8644 19.775 14.7123L18.925 12.8875H14.075ZM8.05 9.10489L3.7 12.3933C3.51667 12.5327 3.2875 12.6056 3.0125 12.6119C2.7375 12.6182 2.5 12.5454 2.3 12.3933C2.11667 12.2539 2.025 12.0765 2.025 11.8611C2.025 11.6456 2.11667 11.4682 2.3 11.3288L6.65 8.02143C6.06667 7.57791 5.5375 7.07102 5.0625 6.50078C4.5875 5.93054 4.15 5.28426 3.75 4.56195H5.85C6.18333 5.05616 6.51667 5.48701 6.85 5.8545C7.18333 6.22199 7.58333 6.58948 8.05 6.95698C8.6 6.5388 9.17083 5.95271 9.7625 5.19872C10.3542 4.44473 10.8 3.72559 11.1 3.0413H1C0.716667 3.0413 0.479167 2.96844 0.2875 2.82271C0.0958333 2.67698 0 2.4964 0 2.28098C0 2.06555 0.0958333 1.88497 0.2875 1.73924C0.479167 1.59351 0.716667 1.52065 1 1.52065H7V0.760325C7 0.5449 7.09583 0.364322 7.2875 0.218593C7.47917 0.0728645 7.71667 0 8 0C8.28333 0 8.52083 0.0728645 8.7125 0.218593C8.90417 0.364322 9 0.5449 9 0.760325V1.52065H15C15.2833 1.52065 15.5208 1.59351 15.7125 1.73924C15.9042 1.88497 16 2.06555 16 2.28098C16 2.4964 15.9042 2.67698 15.7125 2.82271C15.5208 2.96844 15.2833 3.0413 15 3.0413H13.1C12.75 3.95369 12.225 4.89143 11.525 5.8545C10.825 6.81758 10.1333 7.55256 9.45 8.05945L11.85 9.92224L11.1 11.4809L8.05 9.10489ZM14.7 11.5569H18.3L16.5 7.67928L14.7 11.5569Z" fill="url(#paint0_linear_123_238)"/>
<defs>
<linearGradient id="paint0_linear_123_238" x1="10.84" y1="0" x2="10.84" y2="15.2065" gradientUnits="userSpaceOnUse">
<stop stop-color="#BD51EF"/>
<stop offset="1" stop-color="#330D44"/>
</linearGradient>
</defs>
</svg>
