<svg width="22" height="12" viewBox="0 0 22 12" fill="none" xmlns="http://www.w3.org/2000/svg">
<path d="M5.5 9.1239C6.28333 9.1239 7.04583 9.19043 7.7875 9.32349C8.52917 9.45654 9.26667 9.65613 10 9.92224V2.43304C9.31667 2.12891 8.59167 1.90081 7.825 1.74875C7.05833 1.59668 6.28333 1.52065 5.5 1.52065C4.9 1.52065 4.30417 1.565 3.7125 1.65371C3.12083 1.74241 2.55 1.87547 2 2.05288V9.5801C2.58333 9.42803 3.1625 9.31398 3.7375 9.23795C4.3125 9.16192 4.9 9.1239 5.5 9.1239ZM12 9.92224C12.7333 9.65613 13.4708 9.45654 14.2125 9.32349C14.9542 9.19043 15.7167 9.1239 16.5 9.1239C17.1 9.1239 17.6875 9.16192 18.2625 9.23795C18.8375 9.31398 19.4167 9.42803 20 9.5801V2.05288C19.45 1.87547 18.8792 1.74241 18.2875 1.65371C17.6958 1.565 17.1 1.52065 16.5 1.52065C15.7167 1.52065 14.9417 1.59668 14.175 1.74875C13.4083 1.90081 12.6833 2.12891 12 2.43304V9.92224ZM11 11.766C10.7667 11.766 10.5458 11.7439 10.3375 11.6995C10.1292 11.6551 9.93333 11.595 9.75 11.5189C9.1 11.2275 8.41667 11.0089 7.7 10.8631C6.98333 10.7174 6.25 10.6446 5.5 10.6446C4.8 10.6446 4.1125 10.7142 3.4375 10.8536C2.7625 10.993 2.11667 11.1895 1.5 11.4429C1.15 11.5823 0.8125 11.5759 0.4875 11.4239C0.1625 11.2718 0 11.0501 0 10.7586V1.59668C0 1.45729 0.0458333 1.32423 0.1375 1.19751C0.229167 1.07079 0.366667 0.97575 0.55 0.91239C1.31667 0.60826 2.11667 0.380163 2.95 0.228098C3.78333 0.0760325 4.63333 0 5.5 0C6.46667 0 7.4125 0.0950406 8.3375 0.285122C9.2625 0.475203 10.15 0.760325 11 1.14049C11.85 0.760325 12.7375 0.475203 13.6625 0.285122C14.5875 0.0950406 15.5333 0 16.5 0C17.3667 0 18.2167 0.0760325 19.05 0.228098C19.8833 0.380163 20.6833 0.60826 21.45 0.91239C21.6333 0.97575 21.7708 1.07079 21.8625 1.19751C21.9542 1.32423 22 1.45729 22 1.59668V10.7586C22 11.0501 21.8375 11.2718 21.5125 11.4239C21.1875 11.5759 20.85 11.5823 20.5 11.4429C19.8833 11.1895 19.2375 10.993 18.5625 10.8536C17.8875 10.7142 17.2 10.6446 16.5 10.6446C15.75 10.6446 15.0167 10.7174 14.3 10.8631C13.5833 11.0089 12.9 11.2275 12.25 11.5189C12.0667 11.595 11.8708 11.6551 11.6625 11.6995C11.4542 11.7439 11.2333 11.766 11 11.766ZM13 3.63055C13 3.5165 13.0542 3.39929 13.1625 3.2789C13.2708 3.15852 13.3917 3.07932 13.525 3.0413C14.0083 2.91458 14.4917 2.81954 14.975 2.75618C15.4583 2.69282 15.9667 2.66114 16.5 2.66114C16.8333 2.66114 17.1625 2.67698 17.4875 2.70866C17.8125 2.74034 18.1333 2.78152 18.45 2.83221C18.6 2.85755 18.7292 2.92092 18.8375 3.02229C18.9458 3.12367 19 3.23772 19 3.36444C19 3.57986 18.9083 3.73826 18.725 3.83964C18.5417 3.94102 18.3083 3.96636 18.025 3.91567C17.7917 3.87766 17.5458 3.84915 17.2875 3.83014C17.0292 3.81113 16.7667 3.80163 16.5 3.80163C16.0667 3.80163 15.6417 3.83331 15.225 3.89667C14.8083 3.96003 14.4083 4.04239 14.025 4.14377C13.725 4.23248 13.4792 4.22614 13.2875 4.12476C13.0958 4.02339 13 3.85865 13 3.63055ZM13 7.81234C13 7.69829 13.0542 7.58107 13.1625 7.46069C13.2708 7.3403 13.3917 7.2611 13.525 7.22309C14.0083 7.09637 14.4917 7.00133 14.975 6.93797C15.4583 6.87461 15.9667 6.84293 16.5 6.84293C16.8333 6.84293 17.1625 6.85877 17.4875 6.89045C17.8125 6.92213 18.1333 6.96331 18.45 7.014C18.6 7.03934 18.7292 7.1027 18.8375 7.20408C18.9458 7.30546 19 7.41951 19 7.54623C19 7.76165 18.9083 7.92005 18.725 8.02143C18.5417 8.12281 18.3083 8.14815 18.025 8.09746C17.7917 8.05945 17.5458 8.03093 17.2875 8.01192C17.0292 7.99292 16.7667 7.98341 16.5 7.98341C16.0667 7.98341 15.6417 8.01192 15.225 8.06895C14.8083 8.12597 14.4083 8.20517 14.025 8.30655C13.725 8.39526 13.4792 8.39209 13.2875 8.29705C13.0958 8.20201 13 8.04044 13 7.81234ZM13 5.72145C13 5.6074 13.0542 5.49018 13.1625 5.3698C13.2708 5.24941 13.3917 5.17021 13.525 5.13219C14.0083 5.00547 14.4917 4.91043 14.975 4.84707C15.4583 4.78371 15.9667 4.75203 16.5 4.75203C16.8333 4.75203 17.1625 4.76787 17.4875 4.79955C17.8125 4.83123 18.1333 4.87242 18.45 4.9231C18.6 4.94845 18.7292 5.01181 18.8375 5.11319C18.9458 5.21456 19 5.32861 19 5.45533C19 5.67076 18.9083 5.82916 18.725 5.93054C18.5417 6.03191 18.3083 6.05726 18.025 6.00657C17.7917 5.96855 17.5458 5.94004 17.2875 5.92103C17.0292 5.90202 16.7667 5.89252 16.5 5.89252C16.0667 5.89252 15.6417 5.9242 15.225 5.98756C14.8083 6.05092 14.4083 6.13329 14.025 6.23466C13.725 6.32337 13.4792 6.31703 13.2875 6.21566C13.0958 6.11428 13 5.94954 13 5.72145Z" fill="url(#paint0_linear_123_240)"/>
<defs>
<linearGradient id="paint0_linear_123_240" x1="11" y1="0" x2="11" y2="11.766" gradientUnits="userSpaceOnUse">
<stop stop-color="#BD51EF"/>
<stop offset="1" stop-color="#330D44"/>
</linearGradient>
</defs>
</svg>
